# xmcd
#
# Track frame offsets: 
#        150
#        24665
#        53993
#        94144
#        152189
#        173474
#        206159
#        227776
#        249183
#        271732
#        319260
#
# Disc length: 4409 seconds
#
# Revision: 0
# Processed by: cddbd v1.5.2PL0 Copyright (c) Steve Scherf et al.
# Submitted via: ExactAudioCopy v1.0b1
#
DISCID=8d11370b
DTITLE=Lucky Peterson - I'm Back Again
DYEAR=2014
DGENRE=Blues
TTITLE0=I`m Back Again
TTITLE1=Smooth Sailing
TTITLE2=Trouble
TTITLE3=Blues Medley
TTITLE4=Giving Me The Blues
TTITLE5=Ta' Ta' You
TTITLE6=It Ainґt Safe
TTITLE7=I`m Ready
TTITLE8=Who`s Been Talking
TTITLE9=I Believe I`ll Dust My Broom
TTITLE10=The World`s In A Tangle
EXTD=
EXTT0=
EXTT1=
EXTT2=
EXTT3=
EXTT4=
EXTT5=
EXTT6=
EXTT7=
EXTT8=
EXTT9=
EXTT10=
PLAYORDER=
